<svg xmlns="http://www.w3.org/2000/svg" width="1200" height="800" viewBox="0 0 1200 800" role="img" aria-label="Temporary robot architecture subject illustration">
    <defs><pattern id="grid" width="40" height="40" patternUnits="userSpaceOnUse"><path d="M40 0H0V40" fill="none" stroke="#172713" stroke-opacity=".045"/></pattern></defs>
    <rect width="1200" height="800" fill="#fefef9"/><rect width="1200" height="800" fill="url(#grid)"/>
    <text x="56" y="59" font-family="Arial,sans-serif" font-size="16" letter-spacing="3" fill="#172713" opacity=".65">ROBOT ARCHITECTURE</text>
    <g stroke="#172713" stroke-width="2.5" stroke-linecap="round" stroke-linejoin="round"><g transform="translate(135 75)">
      <g><circle cx="355" cy="445" r="63" fill="#172713" /><circle cx="355" cy="445" r="48" fill="#96bfe6" /><circle cx="355" cy="445" r="10" fill="#172713" /><path d="M314 445H396" transform="rotate(0 355 445)" stroke="#172713" stroke-width="2"/><path d="M314 445H396" transform="rotate(60 355 445)" stroke="#172713" stroke-width="2"/><path d="M314 445H396" transform="rotate(120 355 445)" stroke="#172713" stroke-width="2"/></g><g><circle cx="740" cy="445" r="63" fill="#172713" /><circle cx="740" cy="445" r="48" fill="#96bfe6" /><circle cx="740" cy="445" r="10" fill="#172713" /><path d="M699 445H781" transform="rotate(0 740 445)" stroke="#172713" stroke-width="2"/><path d="M699 445H781" transform="rotate(60 740 445)" stroke="#172713" stroke-width="2"/><path d="M699 445H781" transform="rotate(120 740 445)" stroke="#172713" stroke-width="2"/></g>
      <path d="M320 210H765V410H300Z" fill="#96bfe6"/><path d="M320 210L390 140H825L765 210Z" fill="#f5f5b8"/><path d="M765 210L825 140V345L765 410Z" fill="#b08699"/>
      <path d="M175 425L320 320H435V392L305 465Z" fill="#f5f5b8"/>
      <circle cx="210" cy="442" r="48" fill="#172713" /><circle cx="210" cy="442" r="30" fill="#96bfe6" />
      <path d="M147 442H273" transform="rotate(0 210 442)" stroke-width="5"/><path d="M147 442H273" transform="rotate(45 210 442)" stroke-width="5"/><path d="M147 442H273" transform="rotate(90 210 442)" stroke-width="5"/><path d="M147 442H273" transform="rotate(135 210 442)" stroke-width="5"/>
      <path d="M415 210V410M570 210V410" opacity=".3"/><g transform="translate(105 445) rotate(-30)"><path d="M0 0C-35-45-14-78 18-100C42-65 42-22 0 0Z" fill="#f5f5b8"/><path d="M0 0L18-90" fill="none"/></g><g transform="translate(70 515) rotate(50)"><path d="M0 0C-35-45-14-78 18-100C42-65 42-22 0 0Z" fill="#f5f5b8"/><path d="M0 0L18-90" fill="none"/></g><g transform="translate(865 365) rotate(15)"><path d="M0 0C-35-45-14-78 18-100C42-65 42-22 0 0Z" fill="#f5f5b8"/><path d="M0 0L18-90" fill="none"/></g>
      <path d="M80 510H910" opacity=".25"/>
    </g></g>
    <path d="M56 718H1144" stroke="#172713" stroke-opacity=".15"/>
    <text x="56" y="755" font-family="Arial,sans-serif" font-size="14" letter-spacing="2" fill="#172713" opacity=".6">PROJECT ILLUSTRATION</text>
    <text x="1144" y="755" text-anchor="end" font-family="monospace" font-size="14" fill="#172713" opacity=".6">M / 03</text>
  </svg>