<svg xmlns="http://www.w3.org/2000/svg" width="1200" height="800" viewBox="0 0 1200 800" role="img" aria-label="Temporary field robotics subject illustration">
    <g stroke="#24231f" stroke-width="2.5" stroke-linecap="round" stroke-linejoin="round"><g transform="translate(90 75)">
      <g><circle cx="345" cy="400" r="54" fill="#24231f" /><circle cx="345" cy="400" r="39" fill="#ddd7cb" /><circle cx="345" cy="400" r="10" fill="#24231f" /><path d="M313 400H377" transform="rotate(0 345 400)" stroke="#24231f" stroke-width="2"/><path d="M313 400H377" transform="rotate(60 345 400)" stroke="#24231f" stroke-width="2"/><path d="M313 400H377" transform="rotate(120 345 400)" stroke="#24231f" stroke-width="2"/></g><g><circle cx="565" cy="400" r="54" fill="#24231f" /><circle cx="565" cy="400" r="39" fill="#ddd7cb" /><circle cx="565" cy="400" r="10" fill="#24231f" /><path d="M533 400H597" transform="rotate(0 565 400)" stroke="#24231f" stroke-width="2"/><path d="M533 400H597" transform="rotate(60 565 400)" stroke="#24231f" stroke-width="2"/><path d="M533 400H597" transform="rotate(120 565 400)" stroke="#24231f" stroke-width="2"/></g><g><circle cx="785" cy="400" r="54" fill="#24231f" /><circle cx="785" cy="400" r="39" fill="#ddd7cb" /><circle cx="785" cy="400" r="10" fill="#24231f" /><path d="M753 400H817" transform="rotate(0 785 400)" stroke="#24231f" stroke-width="2"/><path d="M753 400H817" transform="rotate(60 785 400)" stroke="#24231f" stroke-width="2"/><path d="M753 400H817" transform="rotate(120 785 400)" stroke="#24231f" stroke-width="2"/></g>
      <path d="M245 195L800 195L855 245L800 285H245L205 240Z" fill="#ddd7cb"/>
      <path d="M245 195L800 195L765 158H285Z" fill="#ddd7cb"/>
      <path d="M800 195L855 245V305L800 265Z" fill="#c9c6bb"/>
      <path d="M300 275L265 325L300 435" fill="none" stroke-width="13"/><path d="M320 276v12l17 5.375l-17 5.375l17 5.375l-17 5.375l17 5.375l-17 5.375l17 5.375l-17 5.375l17 5.375l-17 5.375l17 5.375l-17 5.375l17 5.375l-17 5.375v12" fill="none" stroke-width="4"/><g><circle cx="300" cy="435" r="58" fill="#24231f" /><circle cx="300" cy="435" r="43" fill="#ddd7cb" /><circle cx="300" cy="435" r="10" fill="#24231f" /><path d="M264 435H336" transform="rotate(0 300 435)" stroke="#24231f" stroke-width="2"/><path d="M264 435H336" transform="rotate(60 300 435)" stroke="#24231f" stroke-width="2"/><path d="M264 435H336" transform="rotate(120 300 435)" stroke="#24231f" stroke-width="2"/></g><circle cx="300" cy="275" r="14" fill="#ddd7cb" /><circle cx="300" cy="275" r="4" fill="#24231f" /><path d="M520 275L485 325L520 435" fill="none" stroke-width="13"/><path d="M540 276v12l17 5.375l-17 5.375l17 5.375l-17 5.375l17 5.375l-17 5.375l17 5.375l-17 5.375l17 5.375l-17 5.375l17 5.375l-17 5.375l17 5.375l-17 5.375v12" fill="none" stroke-width="4"/><g><circle cx="520" cy="435" r="58" fill="#24231f" /><circle cx="520" cy="435" r="43" fill="#ddd7cb" /><circle cx="520" cy="435" r="10" fill="#24231f" /><path d="M484 435H556" transform="rotate(0 520 435)" stroke="#24231f" stroke-width="2"/><path d="M484 435H556" transform="rotate(60 520 435)" stroke="#24231f" stroke-width="2"/><path d="M484 435H556" transform="rotate(120 520 435)" stroke="#24231f" stroke-width="2"/></g><circle cx="520" cy="275" r="14" fill="#ddd7cb" /><circle cx="520" cy="275" r="4" fill="#24231f" /><path d="M740 275L705 325L740 435" fill="none" stroke-width="13"/><path d="M760 276v12l17 5.375l-17 5.375l17 5.375l-17 5.375l17 5.375l-17 5.375l17 5.375l-17 5.375l17 5.375l-17 5.375l17 5.375l-17 5.375l17 5.375l-17 5.375v12" fill="none" stroke-width="4"/><g><circle cx="740" cy="435" r="58" fill="#24231f" /><circle cx="740" cy="435" r="43" fill="#ddd7cb" /><circle cx="740" cy="435" r="10" fill="#24231f" /><path d="M704 435H776" transform="rotate(0 740 435)" stroke="#24231f" stroke-width="2"/><path d="M704 435H776" transform="rotate(60 740 435)" stroke="#24231f" stroke-width="2"/><path d="M704 435H776" transform="rotate(120 740 435)" stroke="#24231f" stroke-width="2"/></g><circle cx="740" cy="275" r="14" fill="#ddd7cb" /><circle cx="740" cy="275" r="4" fill="#24231f" />
      <rect x="460" y="110" width="120" height="48" rx="12" fill="white" /><line x1="520" y1="110" x2="520" y2="55" /><circle cx="520" cy="48" r="14" fill="#ddd7cb" />
      <path d="M150 500H940" opacity=".25"/><path d="M850 160H950M925 148L950 160L925 172" fill="none" opacity=".5"/>
    </g></g>
    <path d="M56 718H1144" stroke="#24231f" stroke-opacity=".15"/>
    <text x="56" y="755" font-family="Arial,sans-serif" font-size="14" letter-spacing="2" fill="#24231f" opacity=".6">PROJECT ILLUSTRATION</text>
    <text x="1144" y="755" text-anchor="end" font-family="monospace" font-size="14" fill="#24231f" opacity=".6">M / 02</text>
  </svg>