<svg xmlns="http://www.w3.org/2000/svg" width="1200" height="800" viewBox="0 0 1200 800" role="img" aria-label="Temporary uav hardware / mounting concept subject illustration">
    <g stroke="#24231f" stroke-width="2.5" stroke-linecap="round" stroke-linejoin="round"><g>
  <text x="240" y="155" text-anchor="middle" font-family="Arial,sans-serif" font-size="32" fill="#24231f" stroke="none">Rigid baseline</text><text x="600" y="155" text-anchor="middle" font-family="Arial,sans-serif" font-size="32" fill="#24231f" stroke="none">Elastomer tray</text><text x="960" y="155" text-anchor="middle" font-family="Arial,sans-serif" font-size="32" fill="#24231f" stroke="none">Suspended mount</text>
  <rect x="128" y="240" width="224" height="65" rx="12" fill="#8296a5" /><circle cx="240" cy="272" r="17" fill="#24231f" /><path d="M100 495H380" stroke-width="7"/><path d="M100 508H380" stroke="#8296a5" stroke-width="2"/><rect x="488" y="240" width="224" height="65" rx="12" fill="#8296a5" /><circle cx="600" cy="272" r="17" fill="#24231f" /><path d="M460 495H740" stroke-width="7"/><path d="M460 508H740" stroke="#8296a5" stroke-width="2"/><rect x="848" y="240" width="224" height="65" rx="12" fill="#8296a5" /><circle cx="960" cy="272" r="17" fill="#24231f" /><path d="M820 495H1100" stroke-width="7"/><path d="M820 508H1100" stroke="#8296a5" stroke-width="2"/>
  <path d="M155 305V495M325 305V495" fill="none" stroke-width="15"/>
  <rect x="489" y="369" width="222" height="35" rx="12" fill="#c9c6bb" /><path d="M515 305V350M685 305V350M515 404V495M685 404V495" fill="none" stroke-width="7"/>
  <path d="M490 350H545V375H490ZM660 350H715V375H660Z" fill="#ddd7cb"/>
  <path d="M820 200V495M1100 200V495M820 200H1100" fill="none" stroke-width="7"/>
  <path d="M820 212L875 240M1100 212L1045 240" fill="none" stroke="#8296a5" stroke-width="5"/>
  <text x="240" y="565" text-anchor="middle" font-family="Arial,sans-serif" font-size="26" fill="#24231f" stroke="none">Direct mounting</text><text x="600" y="565" text-anchor="middle" font-family="Arial,sans-serif" font-size="26" fill="#24231f" stroke="none">Isolated modular tray</text><text x="960" y="565" text-anchor="middle" font-family="Arial,sans-serif" font-size="26" fill="#24231f" stroke="none">Suspension supports</text>
</g></g>
    <path d="M56 718H1144" stroke="#24231f" stroke-opacity=".15"/>
    <text x="56" y="755" font-family="Arial,sans-serif" font-size="14" letter-spacing="2" fill="#24231f" opacity=".6">PROJECT ILLUSTRATION</text>
    <text x="1144" y="755" text-anchor="end" font-family="monospace" font-size="14" fill="#24231f" opacity=".6">M / 01</text>
  </svg>