<svg xmlns="http://www.w3.org/2000/svg" width="1200" height="800" viewBox="0 0 1200 800" role="img" aria-label="Temporary planning &amp; localization subject illustration">
    <defs><pattern id="grid" width="40" height="40" patternUnits="userSpaceOnUse"><path d="M40 0H0V40" fill="none" stroke="#172713" stroke-opacity=".045"/></pattern></defs>
    <rect width="1200" height="800" fill="#fefef9"/><rect width="1200" height="800" fill="url(#grid)"/>
    <text x="56" y="59" font-family="Arial,sans-serif" font-size="16" letter-spacing="3" fill="#172713" opacity=".65">PLANNING &amp; LOCALIZATION</text>
    <g stroke="#172713" stroke-width="2.5" stroke-linecap="round" stroke-linejoin="round"><g transform="translate(205 90)">
      <rect x="0" y="0" width="790" height="510" rx="12" fill="white" />
      <line x1="25" y1="25" x2="25" y2="485" opacity=".1"/><line x1="125" y1="25" x2="125" y2="485" opacity=".1"/><line x1="225" y1="25" x2="225" y2="485" opacity=".1"/><line x1="325" y1="25" x2="325" y2="485" opacity=".1"/><line x1="425" y1="25" x2="425" y2="485" opacity=".1"/><line x1="525" y1="25" x2="525" y2="485" opacity=".1"/><line x1="625" y1="25" x2="625" y2="485" opacity=".1"/><line x1="725" y1="25" x2="725" y2="485" opacity=".1"/>
      <line x1="25" y1="55" x2="765" y2="55" opacity=".1"/><line x1="25" y1="155" x2="765" y2="155" opacity=".1"/><line x1="25" y1="255" x2="765" y2="255" opacity=".1"/><line x1="25" y1="355" x2="765" y2="355" opacity=".1"/><line x1="25" y1="455" x2="765" y2="455" opacity=".1"/>
      <rect x="170" y="75" width="170" height="190" rx="12" fill="#b08699" /><rect x="510" y="315" width="150" height="170" rx="12" fill="#b08699" /><rect x="425" y="40" width="255" height="120" rx="12" fill="#f5f5b8" />
      <path d="M75 410H395V230H725V65" fill="none" stroke="#96bfe6" stroke-width="13" stroke-linecap="round" stroke-linejoin="round"/>
      <ellipse cx="395" cy="285" rx="62" ry="85" fill="#96bfe6" fill-opacity=".15" stroke-dasharray="7 7"/>
      <circle cx="395" cy="285" r="29" fill="#96bfe6" /><path d="M383 293L395 270L407 293Z" fill="#172713"/>
      <circle cx="75" cy="410" r="13" fill="#172713" /><circle cx="725" cy="65" r="18" fill="#f5f5b8" />
    </g></g>
    <path d="M56 718H1144" stroke="#172713" stroke-opacity=".15"/>
    <text x="56" y="755" font-family="Arial,sans-serif" font-size="14" letter-spacing="2" fill="#172713" opacity=".6">PROJECT ILLUSTRATION</text>
    <text x="1144" y="755" text-anchor="end" font-family="monospace" font-size="14" fill="#172713" opacity=".6">M / 05</text>
  </svg>