<svg xmlns="http://www.w3.org/2000/svg" width="800" height="800" viewBox="0 0 800 800" fill="none">
  <ellipse cx="400" cy="725" rx="268" ry="22" fill="#334E68" opacity=".08"/>
  <path d="M313 145V113a25 25 0 0 1 25-25h124a25 25 0 0 1 25 25v32" stroke="#334E68" stroke-width="22"/>
  <path d="M134 177a30 30 0 0 1 30-30h472a30 30 0 0 1 30 30v196H134V177Z" fill="#8296A5" stroke="#334E68" stroke-width="5"/>
  <rect x="163" y="176" width="474" height="166" rx="12" fill="#334E68"/>
  <path d="M193 208H607M193 243H607M193 278H607M193 313H607" stroke="#8296A5" stroke-opacity=".25" stroke-width="4"/>
  <path d="M245 485V329a14 14 0 0 1 14-14h123a14 14 0 0 1 14 14v156" fill="#F4F0E6" stroke="#8296A5" stroke-width="4"/>
  <path d="M270 350h98M270 373h98M270 396h62" stroke="#98A886" stroke-width="7"/>
  <path d="m443 469-8-138a37 37 0 0 1 6-70l12 32 22-7-11-33a37 37 0 0 1 17 73l8 141" fill="#C59A4A" stroke="#334E68" stroke-width="4" stroke-linejoin="round"/>
  <path d="m539 474 23-150" stroke="#334E68" stroke-width="18"/>
  <path d="m551 392 17-69 25 4-6 77" fill="#98A886" stroke="#334E68" stroke-width="4"/>
  <path d="M134 378h532l41 79H93l41-79Z" fill="#8296A5" stroke="#334E68" stroke-width="5"/>
  <path d="M94 457h612v209a34 34 0 0 1-34 34H128a34 34 0 0 1-34-34V457Z" fill="#334E68"/>
  <path d="M113 470h574v192a19 19 0 0 1-19 19H132a19 19 0 0 1-19-19V470Z" fill="#49637B"/>
  <path d="M113 500h574" stroke="#8296A5" stroke-width="5"/>
  <rect x="197" y="446" width="32" height="82" rx="7" fill="#C59A4A" stroke="#334E68" stroke-width="4"/>
  <rect x="571" y="446" width="32" height="82" rx="7" fill="#C59A4A" stroke="#334E68" stroke-width="4"/>
  <rect x="334" y="557" width="132" height="38" rx="9" fill="#334E68" stroke="#8296A5" stroke-width="4"/>
  <path d="M135 642h70M595 642h70" stroke="#8296A5" stroke-width="4"/>
</svg>
